<?xml version="1.0" encoding="utf-8"?>
<!-- Generator: Adobe Illustrator 16.0.0, SVG Export Plug-In . SVG Version: 6.00 Build 0)  -->
<!DOCTYPE svg PUBLIC "-//W3C//DTD SVG 1.1//EN" "http://www.w3.org/Graphics/SVG/1.1/DTD/svg11.dtd">
<svg version="1.1" id="Capa_1" xmlns="http://www.w3.org/2000/svg" xmlns:xlink="http://www.w3.org/1999/xlink" x="0px" y="0px"
	 width="23.3px" height="22.6px" viewBox="0 0 23.3 22.6" enable-background="new 0 0 23.3 22.6" xml:space="preserve">
<path fill="#FFFFFF" d="M13.1,0C7.5,0,3,4.6,3,10.2c0,2,0.6,3.9,1.6,5.5l-4.1,4.1l0,0c-0.6,0.7-0.6,1.7,0,2.4c0.6,0.7,1.7,0.7,2.4,0
	l0,0l4-4c1.7,1.4,3.9,2.2,6.3,2.2c5.6,0,10.2-4.6,10.2-10.2C23.3,4.6,18.7,0,13.1,0z M2.2,21.5c-0.3,0.3-0.8,0.3-1.1,0
	c-0.3-0.3-0.3-0.8,0-1s0.8-0.3,1.1,0C2.5,20.7,2.5,21.2,2.2,21.5z M19.3,8.8c-0.1,0.8-1.4,1.6-1.1,2.4S18,12.8,18,12.8
	s-0.5,2.5-0.9,2.8s-2.3,1.2-1.9,1.7c0.4,0.5,1.7-0.1,3.1-0.4c0.3-0.1,0.6-0.2,1-0.3c-1.6,1.5-3.7,2.4-6.1,2.4c-2,0-3.9-0.7-5.4-1.8
	l3.5-3.4l4.6,0l1.3-4.7l-0.5-0.5l-2.5,2.5l-2.4-2.4l2.5-2.5l-0.5-0.5L9,6.9l0,4.5l0,0l-3.4,3.4c-0.6-1-1-2.1-1.2-3.4
	c0.8-0.4,2-1.1,2.4-1.4c0.7-0.5-0.2-0.8-0.3-1.1c-0.1-0.3,0-1.1,0-1.9c0-0.8,1.5-0.8,2.1-1.5c0.4-0.5-0.3-1.7-0.8-2.4
	c1.5-1.2,3.4-1.9,5.4-1.9c0.5,0,1.1,0.1,1.6,0.1c0.2,0.9,0.5,2.2,1.1,2.6c1,0.5,2.2,1.7,2.6,2C18.8,6.1,19.4,8,19.3,8.8z M20.6,9.4
	c-0.5-0.4-1-2.1-0.7-2.6C20.1,6.5,20.6,6.2,21,6c0.7,1.2,1,2.7,1,4.2c0,0.5,0,0.9-0.1,1.3C21.8,10.7,21.4,10,20.6,9.4z"/>
</svg>
